<svg width="18" height="16" viewBox="0 0 18 16" fill="none" xmlns="http://www.w3.org/2000/svg">
<path d="M17.3396 15.06C17.8526 15.3022 17.6597 15.4747 17.0996 15.8C16.7529 15.8267 16.4929 15.84 16.3196 15.84C15.5196 15.84 14.8663 15.5 14.3596 14.82C13.8663 14.1533 13.6196 13.28 13.6196 12.2C13.6196 11.5467 13.7663 10.3133 14.0596 8.49999C14.3663 6.67332 14.7196 5.00666 15.1196 3.49999C15.1996 3.16666 15.2396 2.94666 15.2396 2.83999C15.2396 2.73332 15.1929 2.67999 15.0996 2.67999C15.0063 2.67999 14.7063 3.17999 14.1996 4.17999C13.7063 5.16666 13.1129 6.38666 12.4196 7.83999C11.7263 9.27999 11.3263 10.1067 11.2196 10.32C11.1263 10.52 11.0463 10.6867 10.9796 10.82C10.9263 10.94 10.8063 11.1667 10.6196 11.5C10.4463 11.82 10.2796 12.1067 10.1196 12.36C9.67958 13.0267 9.33292 13.36 9.07959 13.36C8.90625 13.36 8.71292 13.3133 8.49959 13.22C8.29958 13.1267 8.16625 13.0267 8.09958 12.92C7.95292 12.6933 7.87958 11.9867 7.87958 10.8C7.87958 8.31999 8.07958 5.95332 8.47958 3.69999C8.61292 2.95332 8.67958 2.55999 8.67958 2.51999C8.67958 2.38666 8.62625 2.31999 8.51958 2.31999C8.30625 2.31999 7.96625 2.98666 7.49958 4.31999L6.91958 5.97999C6.06625 8.39332 5.19959 10.2733 4.31959 11.62C3.45292 12.9667 2.45292 13.9133 1.31958 14.46C0.3585 14.3532 0.19699 14.1326 0.799585 13.36C2.09292 12.4 3.08625 11.42 3.77959 10.42C4.48625 9.41999 5.25292 7.80666 6.07958 5.57999L6.75958 3.75999C7.22625 2.49332 7.63292 1.59332 7.97958 1.05999C8.32625 0.513324 8.71292 0.23999 9.13958 0.23999C9.84625 0.23999 10.1996 0.666657 10.1996 1.51999C10.1996 1.58666 10.0729 2.93999 9.81958 5.57999C9.56625 8.20666 9.43958 9.93999 9.43958 10.78C9.43958 11.02 9.47958 11.1467 9.55958 11.16C9.62625 11.16 9.69959 11.0933 9.77958 10.96C10.8596 9.15999 11.8929 7.19999 12.8796 5.07999C12.9996 4.81332 13.2063 4.35332 13.4996 3.69999C13.7929 3.04666 14.0796 2.46666 14.3596 1.95999C14.6396 1.45332 14.8529 1.14666 14.9996 1.03999C15.1463 0.919989 15.3796 0.859989 15.6996 0.859989C16.0196 0.859989 16.2929 0.979989 16.5196 1.21999C16.7596 1.44666 16.8796 1.71999 16.8796 2.03999C16.8796 2.35999 16.8329 2.72666 16.7396 3.13999C15.6996 8.21999 15.1796 11.26 15.1796 12.26C15.1796 13.2467 15.3396 13.92 15.6596 14.28C15.9796 14.6533 16.5396 14.9133 17.3396 15.06Z" fill="url(#paint0_linear_105_4)"/>
<defs>
<linearGradient id="paint0_linear_105_4" x1="-1.48689" y1="13.8566" x2="19.189" y2="3.83197" gradientUnits="userSpaceOnUse">
<stop stop-color="#0369A1"/>
<stop offset="0.9999" stop-color="#7DD3FC"/>
</linearGradient>
</defs>
</svg>
